<?xml version="1.0" encoding="iso-8859-1"?>
<!-- Generator: Adobe Illustrator 25.2.3, SVG Export Plug-In . SVG Version: 6.00 Build 0)  -->
<svg version="1.1" baseProfile="basic" id="Layer_1"
	 xmlns="http://www.w3.org/2000/svg" xmlns:xlink="http://www.w3.org/1999/xlink" x="0px" y="0px" viewBox="0 0 48 48"
	 xml:space="preserve">
<rect x="-3093" y="-412" style="display:none;fill:#AFFF92;" width="4453" height="2063"/>
<linearGradient id="SVGID_1_" gradientUnits="userSpaceOnUse" x1="0.0809" y1="2.1764" x2="50.487" y2="52.5824">
	<stop  offset="0" style="stop-color:#262626;stop-opacity:0"/>
	<stop  offset="1" style="stop-color:#262626;stop-opacity:0.8"/>
</linearGradient>
<path style="fill:url(#SVGID_1_);" d="M42.906,33.283c-1.034,2.289-1.529,3.313-2.857,5.336c-1.855,2.825-4.475,6.351-7.714,6.375
	c-2.881,0.024-3.624-1.88-7.534-1.848c-3.91,0.019-4.724,1.883-7.608,1.854c-3.239-0.029-5.718-3.206-7.575-6.026
	c-5.193-7.911-5.741-17.182-2.531-22.116c2.27-3.498,5.864-5.552,9.237-5.552c3.436,0,5.595,1.888,8.436,1.888
	c2.756,0,4.435-1.893,8.409-1.893c3.005,0,6.183,1.637,8.454,4.463C34.195,19.834,35.401,30.444,42.906,33.283z"/>
<linearGradient id="SVGID_2_" gradientUnits="userSpaceOnUse" x1="17.1898" y1="-4.0223" x2="36.2899" y2="15.0777">
	<stop  offset="0" style="stop-color:#262626;stop-opacity:0"/>
	<stop  offset="1" style="stop-color:#262626;stop-opacity:0.8"/>
</linearGradient>
<path style="fill:url(#SVGID_2_);" d="M29.801,8.127c1.428-1.833,2.511-4.418,2.118-7.055c-2.33,0.159-5.054,1.646-6.645,3.573
	c-1.441,1.754-2.637,4.36-2.171,6.881C25.644,11.607,28.274,10.093,29.801,8.127z"/>
</svg>